<svg viewBox="0 0 100 100" xmlns="http://www.w3.org/2000/svg"><g fill="#48b54e"><path d="m100 0c-1.3 2.9-2.7 5.7-4.1 8.4s-2.9 5.4-4.5 8c-4.3 4.1-8.4 8.3-12.5 12.5l-25 25-25 25-12.5 12.5c-5.3 3-10.7 6-16.4 8.6 2.6-5.7 5.6-11.1 8.6-16.4l12.5-12.5 25-25 25-25c4.1-4.2 8.4-8.3 12.5-12.5 2.6-1.5 5.3-3 8-4.5 2.7-1.4 5.5-2.8 8.4-4.1z"/><path d="m0 0c2.9 1.3 5.7 2.7 8.4 4.1s5.4 2.9 8 4.5c4.1 4.3 8.3 8.4 12.5 12.5l25 25 25 25 12.5 12.5c3 5.3 6 10.7 8.6 16.4-5.7-2.6-11.1-5.6-16.4-8.6l-12.5-12.5-25-25-25-25c-4.2-4.1-8.3-8.4-12.5-12.5-1.5-2.6-3-5.3-4.5-8-1.4-2.7-2.8-5.5-4.1-8.4z"/></g></svg>