<svg viewBox="0 0 84.1 19.1" xmlns="http://www.w3.org/2000/svg"><path d="m1.9 1.9h5.4c.9 0 1.7.1 2.5.3s1.4.5 1.9.9.9.9 1.2 1.4.4 1.2.4 1.9c0 .9-.2 1.6-.5 2.3-.3.6-.8 1.2-1.3 1.6s-1.2.7-2 .9-1.5.3-2.4.3h-1.6v5.3h-3.6zm3.6 6.9h1.3c.3 0 .7 0 1-.1s.6-.2.9-.4.5-.3.6-.6.2-.6.2-1c0-.7-.2-1.2-.7-1.5-.4-.4-1-.6-1.8-.6h-1.5zm13.6-6.9v15h-3.6v-15h3.6zm10.8 12.5c.7 0 1.3-.1 1.8-.2s.9-.3 1.2-.5l.7 2.6c-.3.2-.8.4-1.5.6s-1.6.3-2.6.3c-1.2 0-2.2-.2-3.2-.5s-1.8-.9-2.5-1.6-1.2-1.5-1.6-2.4-.6-2-.6-3.2.2-2.2.6-3.2.9-1.8 1.6-2.5 1.5-1.2 2.5-1.6 2.1-.6 3.3-.6c1 0 1.9.1 2.6.3s1.2.4 1.6.6l-.8 2.6c-.4-.2-.8-.4-1.3-.6s-1-.2-1.6-.2-1.2.1-1.8.3-1 .5-1.5.9-.8.9-1 1.5-.4 1.4-.4 2.3c0 .8.1 1.6.3 2.2s.5 1.2 1 1.6.9.7 1.4.9c.6.3 1.2.4 1.8.4zm6 2.5v-15h3.6v6.1l4.8-6.1h4.5l-5.4 6.5 5.9 8.5h-4.4l-4.1-6.2-1.2 1.3v4.9z" fill="#161616"/><path d="m51.7 1.9h4.5l1.6 5.2c.1.3.2.7.3 1.1s.2.9.4 1.3.2.9.3 1.4.2.9.2 1.3h.1c.1-.4.2-.9.3-1.4s.2-1 .4-1.4.2-.9.3-1.3.2-.7.3-.9l1.6-5.3h4.5l1.1 15h-3.4l-.2-5.1c0-.5-.1-1-.1-1.6v-1.7-1.7-1.6h-.1c-.1.5-.2 1.1-.4 1.6s-.3 1.2-.4 1.7c-.1.6-.3 1.1-.4 1.6s-.3 1-.4 1.4l-1.7 5.4h-2.7l-1.8-5.4c-.1-.4-.3-.9-.4-1.4s-.3-1.1-.4-1.6c-.2-.5-.3-1.1-.4-1.6-.1-.6-.2-1.1-.3-1.6h-.1v3.5c0 .6 0 1.2-.1 1.7 0 .6 0 1-.1 1.4l-.2 5h-3.3l1-15zm22.1 2.8c-.7 0-1.3.1-1.8.2s-.9.3-1.2.5l-.7-2.6c.3-.2.8-.4 1.5-.6s1.6-.3 2.6-.3c1.2 0 2.2.2 3.2.5 1 .4 1.8.9 2.5 1.6s1.2 1.5 1.6 2.4.6 2 .6 3.2-.2 2.2-.6 3.2-.9 1.8-1.6 2.4c-.7.7-1.5 1.2-2.5 1.6s-2.1.6-3.3.6c-1 0-1.9-.1-2.5-.3-.7-.2-1.2-.4-1.6-.6l.8-2.6c.4.2.8.4 1.3.6s1.1.2 1.7.2 1.2-.1 1.8-.3 1-.5 1.5-.9c.4-.4.7-.9 1-1.5.2-.6.4-1.4.4-2.3 0-.8-.1-1.6-.3-2.2s-.6-1.2-1-1.6-.9-.7-1.4-.9c-.7-.2-1.3-.3-2-.3z" fill="#fff"/></svg>