<?xml version="1.0" encoding="utf-8"?>
<!-- Generator: Adobe Illustrator 23.0.1, SVG Export Plug-In . SVG Version: 6.00 Build 0)  -->
<svg version="1.1" id="Calque_1" xmlns="http://www.w3.org/2000/svg" xmlns:xlink="http://www.w3.org/1999/xlink" x="0px" y="0px"
	 viewBox="0 0 84.1 19.1" style="enable-background:new 0 0 84.1 19.1;" xml:space="preserve">
<style type="text/css">
	.st0{enable-background:new    ;}
	.st1{fill:#FFFFFF;}
	.st2{fill:#48B54E;}
</style>
<text transform="matrix(1 0 0 1 -88.2977 9.2959)" class="st1" style="font-family:'Mukta-ExtraBold'; font-size:12px;">PICK</text>
<text transform="matrix(1 0 0 1 -63.6377 9.2959)" class="st2" style="font-family:'Mukta-ExtraBold'; font-size:12px;">MO</text>
<g>
	<g class="st0">
		<path class="st1" d="M1.9,1.9h5.4C8.2,1.9,9,2,9.8,2.2s1.4,0.5,1.9,0.9s0.9,0.9,1.2,1.4s0.4,1.2,0.4,1.9c0,0.9-0.2,1.6-0.5,2.3
			c-0.3,0.6-0.8,1.2-1.3,1.6s-1.2,0.7-2,0.9S8,11.5,7.1,11.5H5.5v5.3H1.9V1.9z M5.5,8.8h1.3c0.3,0,0.7,0,1-0.1s0.6-0.2,0.9-0.4
			S9.2,8,9.3,7.7s0.2-0.6,0.2-1c0-0.7-0.2-1.2-0.7-1.5C8.4,4.8,7.8,4.6,7,4.6H5.5V8.8L5.5,8.8z"/>
		<path class="st1" d="M19.1,1.9v15h-3.6v-15C15.5,1.9,19.1,1.9,19.1,1.9z"/>
		<path class="st1" d="M29.9,14.4c0.7,0,1.3-0.1,1.8-0.2c0.5-0.1,0.9-0.3,1.2-0.5l0.7,2.6c-0.3,0.2-0.8,0.4-1.5,0.6
			s-1.6,0.3-2.6,0.3c-1.2,0-2.2-0.2-3.2-0.5s-1.8-0.9-2.5-1.6c-0.7-0.7-1.2-1.5-1.6-2.4s-0.6-2-0.6-3.2s0.2-2.2,0.6-3.2
			s0.9-1.8,1.6-2.5s1.5-1.2,2.5-1.6s2.1-0.6,3.3-0.6c1,0,1.9,0.1,2.6,0.3s1.2,0.4,1.6,0.6L33,5.1c-0.4-0.2-0.8-0.4-1.3-0.6
			s-1-0.2-1.6-0.2s-1.2,0.1-1.8,0.3s-1,0.5-1.5,0.9S26,6.4,25.8,7s-0.4,1.4-0.4,2.3c0,0.8,0.1,1.6,0.3,2.2s0.5,1.2,1,1.6
			s0.9,0.7,1.4,0.9C28.7,14.3,29.3,14.4,29.9,14.4z"/>
		<path class="st1" d="M35.9,16.9v-15h3.6V8l4.8-6.1h4.5l-5.4,6.5l5.9,8.5h-4.4l-4.1-6.2L39.6,12v4.9C39.5,16.9,35.9,16.9,35.9,16.9
			z"/>
		<path class="st2" d="M51.7,1.9h4.5l1.6,5.2c0.1,0.3,0.2,0.7,0.3,1.1c0.1,0.4,0.2,0.9,0.4,1.3s0.2,0.9,0.3,1.4s0.2,0.9,0.2,1.3h0.1
			c0.1-0.4,0.2-0.9,0.3-1.4s0.2-1,0.4-1.4s0.2-0.9,0.3-1.3c0.1-0.4,0.2-0.7,0.3-0.9L62,1.9h4.5l1.1,15h-3.4L64,11.8
			c0-0.5-0.1-1-0.1-1.6s0-1.1,0-1.7s0-1.2,0-1.7s0-1.1,0-1.6h-0.1c-0.1,0.5-0.2,1.1-0.4,1.6S63.1,8,63,8.5c-0.1,0.6-0.3,1.1-0.4,1.6
			c-0.1,0.5-0.3,1-0.4,1.4l-1.7,5.4h-2.7L56,11.5c-0.1-0.4-0.3-0.9-0.4-1.4c-0.1-0.5-0.3-1.1-0.4-1.6C55,8,54.9,7.4,54.8,6.9
			c-0.1-0.6-0.2-1.1-0.3-1.6h-0.1c0,0.5,0,1.1,0,1.7s0,1.2,0,1.8s0,1.2-0.1,1.7c0,0.6,0,1-0.1,1.4l-0.2,5h-3.3L51.7,1.9z"/>
	</g>
	<path class="st2" d="M73.8,4.7c-0.7,0-1.3,0.1-1.8,0.2s-0.9,0.3-1.2,0.5l-0.7-2.6c0.3-0.2,0.8-0.4,1.5-0.6c0.7-0.2,1.6-0.3,2.6-0.3
		c1.2,0,2.2,0.2,3.2,0.5c1,0.4,1.8,0.9,2.5,1.6s1.2,1.5,1.6,2.4s0.6,2,0.6,3.2s-0.2,2.2-0.6,3.2s-0.9,1.8-1.6,2.4
		c-0.7,0.7-1.5,1.2-2.5,1.6s-2.1,0.6-3.3,0.6c-1,0-1.9-0.1-2.5-0.3c-0.7-0.2-1.2-0.4-1.6-0.6l0.8-2.6c0.4,0.2,0.8,0.4,1.3,0.6
		c0.5,0.2,1.1,0.2,1.7,0.2s1.2-0.1,1.8-0.3c0.6-0.2,1-0.5,1.5-0.9c0.4-0.4,0.7-0.9,1-1.5c0.2-0.6,0.4-1.4,0.4-2.3
		c0-0.8-0.1-1.6-0.3-2.2c-0.2-0.6-0.6-1.2-1-1.6S76.3,5.2,75.8,5C75.1,4.8,74.5,4.7,73.8,4.7z"/>
</g>
</svg>
