<svg viewBox="0 0 100 100" xmlns="http://www.w3.org/2000/svg"><path d="m39.6 27.2c-3.2 0-5.9.4-8.3 1-2.3.4-4.1 1.4-5.5 2.3l-3.2-12c1.4-1 3.7-1.8 6.9-2.8s7.3-1.4 12-1.4c5.5 0 10.1 1 14.7 2.3 4.6 1.8 8.3 4.1 11.5 7.3s5.5 6.9 7.3 11 2.8 9.2 2.8 14.7-1 10.1-2.8 14.7c-1.8 4.5-4.1 8.3-7.3 11-3.2 3.2-6.9 5.5-11.5 7.3s-9.6 2.8-15.2 2.8c-4.6 0-8.7-.4-11.5-1.4-3.2-1-5.5-1.8-7.3-2.8l3.7-12c1.8 1 3.7 1.8 5.9 2.8s5.1 1 7.8 1 5.5-.4 8.3-1.4 4.6-2.3 6.9-4.1c1.8-1.8 3.2-4.1 4.6-6.9 1-2.8 1.8-6.5 1.8-10.6 0-3.7-.4-7.3-1.4-10.1s-2.8-5.5-4.6-7.3-4.1-3.2-6.5-4.1c-3-.8-5.8-1.3-9.1-1.3z" fill="#48b54e"/></svg>