<svg xmlns="http://www.w3.org/2000/svg" viewBox="0 0 100 100"><path d="M50 21.2l5.7 17.4c1.1 3.3 4.1 5.5 7.6 5.5h18.3L66.7 54.9c-2.8 2-4 5.6-2.9 8.9l5.7 17.5-14.8-10.8c-1.4-1-3-1.5-4.7-1.5s-3.3.5-4.7 1.5L30.5 81.2l5.6-17.3c1.1-3.3-.1-6.9-2.9-8.9L18.4 44.2h18.3c3.5 0 6.5-2.2 7.6-5.5L50 21.2m0-15c-.8 0-1.6.5-1.9 1.4l-9.5 29.3c-.3.8-1 1.4-1.9 1.4H6c-1.9 0-2.7 2.4-1.2 3.5l24.9 18.1c.7.5 1 1.4.7 2.2L21 91.2c-.4 1.4.6 2.6 1.9 2.6.4 0 .8-.1 1.1-.4l24.9-18.1c.3-.3.7-.4 1.2-.4s.8.1 1.2.4L76 93.4c.4.3.8.4 1.1.4 1.2 0 2.3-1.2 1.9-2.6l-9.5-29.3c-.3-.8 0-1.7.7-2.2l24.9-18c1.5-1.1.7-3.5-1.2-3.5H63.2c-.8 0-1.6-.5-1.9-1.4L51.9 7.5c-.3-.9-1.1-1.3-1.9-1.3z" fill="#48b54e"/></svg>