<?xml version="1.0" standalone="no"?>
<!DOCTYPE svg PUBLIC "-//W3C//DTD SVG 20010904//EN"
 "http://www.w3.org/TR/2001/REC-SVG-20010904/DTD/svg10.dtd">
<svg version="1.0" xmlns="http://www.w3.org/2000/svg"
 width="700.000000pt" height="700.000000pt" viewBox="0 0 700.000000 700.000000"
 preserveAspectRatio="xMidYMid meet">
<metadata>
Created by potrace 1.11, written by Peter Selinger 2001-2013
</metadata>
<g transform="translate(0.000000,700.000000) scale(0.100000,-0.100000)"
fill="#000000" stroke="none">
<path d="M2657 5994 c-1 -1 -47 -5 -102 -9 -55 -4 -107 -9 -116 -10 -9 -2 -40
-6 -69 -10 -29 -4 -62 -9 -74 -11 -12 -2 -37 -7 -56 -10 -135 -24 -426 -120
-556 -185 l-102 -50 8 -32 c4 -18 21 -84 38 -147 17 -63 38 -140 46 -170 95
-361 129 -486 132 -489 2 -2 25 9 51 25 148 92 421 166 700 189 160 14 395 10
498 -9 17 -2 50 -8 75 -11 25 -3 52 -8 60 -10 8 -2 31 -7 50 -10 224 -37 453
-159 625 -333 182 -182 322 -443 370 -687 25 -129 32 -184 41 -330 12 -185 7
-376 -11 -475 -3 -14 -7 -43 -10 -65 -3 -33 -28 -158 -39 -200 -2 -5 -6 -23
-11 -40 -52 -203 -183 -433 -351 -621 -23 -25 -194 -151 -249 -183 -100 -59
-131 -74 -214 -106 -98 -38 -254 -81 -329 -91 -26 -3 -74 -9 -107 -14 -80 -10
-394 -10 -475 1 -127 17 -144 21 -189 36 -57 19 -211 88 -356 159 -61 30 -114
54 -117 54 -3 0 -23 -53 -43 -118 -20 -64 -56 -180 -80 -257 -24 -77 -58 -187
-75 -245 -18 -58 -38 -124 -46 -148 -8 -23 -14 -49 -14 -56 0 -11 75 -55 115
-66 6 -2 33 -13 60 -25 50 -22 396 -137 448 -149 197 -45 422 -64 722 -59 121
1 234 5 250 7 17 2 57 7 90 10 33 4 83 11 110 16 28 5 66 12 85 15 197 33 566
159 750 258 255 136 377 228 610 457 149 146 245 281 352 492 107 214 214 527
244 712 3 21 8 48 10 60 2 11 7 41 10 66 3 25 8 54 10 65 30 153 21 580 -16
805 -5 30 -12 71 -15 90 -18 109 -78 310 -131 440 -34 85 -142 300 -186 370
-45 73 -111 172 -123 186 -5 6 -21 26 -35 45 -80 108 -235 265 -355 360 -268
212 -581 361 -885 423 -289 58 -309 62 -400 71 -36 4 -74 9 -85 12 -20 5 -533
12 -538 7z"/>
</g>
</svg>
